<?xml version="1.0" encoding="UTF-8"?>
<svg id="Layer_1" xmlns="http://www.w3.org/2000/svg" version="1.1" viewBox="0 0 1227.3 533.6">
  <!-- Generator: Adobe Illustrator 29.1.0, SVG Export Plug-In . SVG Version: 2.1.0 Build 142)  -->
  <defs>
    <style>
      .st0 {
        fill: #231f20;
      }
    </style>
  </defs>
  <rect class="st0" x="13.8" y="412.2" width="23.6" height="74.5"/>
  <polygon class="st0" points="128.7 470.1 87.7 412.2 78 412.2 71.4 412.2 59.6 412.2 47.8 412.2 47.8 486.7 71.4 486.7 71.4 428.9 112.4 486.7 122.1 486.7 128.7 486.7 140.5 486.7 152.3 486.7 152.3 412.2 128.7 412.2 128.7 470.1"/>
  <polygon class="st0" points="191.4 412.2 158.5 412.2 158.5 431.1 191.4 431.1 191.4 486.7 215 486.7 215 431.1 247.8 431.1 247.8 412.2 215 412.2 191.4 412.2"/>
  <polygon class="st0" points="861.7 431.1 861.7 412.2 828.8 412.2 805.2 412.2 772.4 412.2 772.4 431.1 805.2 431.1 805.2 486.7 828.8 486.7 828.8 431.1 861.7 431.1"/>
  <path class="st0" d="M414.5,412.2h-23.6l-39.3,74.5h25.8l6-12h49.8l6,12h25.8l-39.3-74.5h-11.2ZM391.2,459l14.7-29.5h4.8l14.7,29.5h-34.1Z"/>
  <polygon class="st0" points="996 428.5 996 442.8 996 452.2 996 464.8 996 472.4 996 486.7 1013.1 486.7 1062.4 486.7 1062.4 472.4 1013.1 472.4 1013.1 464.8 1059.2 464.8 1059.2 452.2 1013.1 452.2 1013.1 442.8 1062.4 442.8 1062.4 428.5 1013.1 428.5 996 428.5"/>
  <polygon class="st0" points="1213.5 442.8 1213.5 428.5 1164.3 428.5 1147.2 428.5 1147.2 442.8 1147.2 452.2 1147.2 464.8 1147.2 472.4 1147.2 486.7 1164.3 486.7 1213.5 486.7 1213.5 472.4 1164.3 472.4 1164.3 464.8 1210.3 464.8 1210.3 452.2 1164.3 452.2 1164.3 442.8 1213.5 442.8"/>
  <polygon class="st0" points="1086 428.5 1068.9 428.5 1068.9 442.8 1068.9 486.7 1086 486.7 1086 442.8 1123.5 442.8 1123.5 486.7 1140.7 486.7 1140.7 442.8 1140.7 428.5 1123.5 428.5 1086 428.5"/>
  <path class="st0" d="M651,412.2h-62.6c-10.7,0-19.4,8.7-19.4,19.4v35.8c0,10.7,8.7,19.4,19.4,19.4h62.6c10.7,0,19.4-8.7,19.4-19.4v-35.8c0-10.7-8.7-19.4-19.4-19.4ZM648.2,460.6c0,4-3.3,7.3-7.3,7.3h-42.5c-4,0-7.3-3.3-7.3-7.3v-22.3c0-4,3.3-7.3,7.3-7.3h42.5c4,0,7.3,3.3,7.3,7.3v22.3Z"/>
  <path class="st0" d="M328.6,412.2h-73.9v74.5h22.1v-18.5h38.8c6.1,0,9.1,2.7,9.1,5.4v13.1h21.7v-17.2c0-5.8-7.9-10.5-17.7-10.5,9.8,0,17.7-7.9,17.7-17.7v-11.3c0-9.8-7.9-17.7-17.7-17.7ZM276.8,431.1h39.5c5.1,0,9.2,4.1,9.2,9.2h0c0,5.1-4.1,9.2-9.2,9.2h-39.5v-18.4Z"/>
  <path class="st0" d="M541.8,412.2h-56.1c-10.7,0-19.4,8.7-19.4,19.4v35.8c0,10.7,8.7,19.4,19.4,19.4h56.1c10.7,0,19.4-8.7,19.4-19.4v-7.7h-22.1v1c0,4-3.3,7.3-7.3,7.3h-36c-4,0-7.3-3.3-7.3-7.3v-22.3c0-4,3.3-7.3,7.3-7.3h36c4,0,7.3,3.3,7.3,7.3v1h22.1v-7.7c0-10.7-8.7-19.4-19.4-19.4Z"/>
  <path class="st0" d="M747.9,412.2h-48.7c-10.7,0-19.4,8.7-19.4,19.4v9.3c0,10.7,8.7,16.3,19.4,16.3l38.7.4c4.3,0,6.5,2.6,6.5,5.2s-2.2,5.4-6.5,5.4h-28.6c-3.3,0-6.1-2.6-7-5.6h-22.4v4.8c0,10.7,8.7,19.4,19.4,19.4h48.7c10.7,0,19.4-8.7,19.4-19.4v-9.1c0-10.7-8.7-16.1-19.4-16.1l-38.7-.4c-4.3,0-6.5-3-6.5-5.5s2.2-5.4,6.5-5.4h28.6c3.3,0,6.1,2.6,7,5.6h22.4v-4.8c0-10.7-8.7-19.4-19.4-19.4Z"/>
  <path class="st0" d="M914.9,412.2h-23.6l-39.3,74.5h25.8l6-12h49.8l6,12h25.8l-39.3-74.5h-11.2ZM891.6,459l14.7-29.5h4.8l14.7,29.5h-34.1Z"/>
</svg>