<svg version="1.2" xmlns="http://www.w3.org/2000/svg" viewBox="0 0 1228 534" width="1228" height="534"><style>.a{fill:#ffffff}</style><path fill-rule="evenodd" class="a" d="m13.8 412.2h23.6v74.5h-23.6z"/><path fill-rule="evenodd" class="a" d="m128.7 470.1l-41-57.9h-9.7-6.6-11.8-11.8v74.5h23.6v-57.8l41 57.8h9.7 6.6 11.8 11.8v-74.5h-23.6v57.9z"/><path fill-rule="evenodd" class="a" d="m191.4 412.2h-32.9v18.9h32.9v55.6h23.6v-55.6h32.8v-18.9h-32.8-23.6z"/><path fill-rule="evenodd" class="a" d="m861.7 431.1v-18.9h-32.9-23.6-32.8v18.9h32.8v55.6h23.6v-55.6h32.9z"/><path class="a" d="m414.5 412.2h-23.6l-39.3 74.5h25.8l6-12h49.8l6 12h25.8l-39.3-74.5zm-23.3 46.8l14.7-29.5h4.8l14.7 29.5h-34.1z"/><path class="a" d="m651 412.2h-62.6c-10.7 0-19.4 8.7-19.4 19.4v35.8c0 10.7 8.7 19.4 19.4 19.4h62.6c10.7 0 19.4-8.7 19.4-19.4v-35.8c0-10.7-8.7-19.4-19.4-19.4zm-2.8 48.4c0 4-3.3 7.3-7.3 7.3h-42.5c-4 0-7.3-3.3-7.3-7.3v-22.3c0-4 3.3-7.3 7.3-7.3h42.5c4 0 7.3 3.3 7.3 7.3z"/><path class="a" d="m328.6 412.2h-73.9v74.5h22.1v-18.5h38.8c6.1 0 9.1 2.7 9.1 5.4v13.1h21.7v-17.2c0-5.8-7.9-10.5-17.7-10.5 9.8 0 17.7-7.9 17.7-17.7v-11.3c0-9.8-7.9-17.7-17.7-17.7zm-51.8 18.9h39.5c5.1 0 9.2 4.1 9.2 9.2 0 5.1-4.1 9.2-9.2 9.2h-39.5z"/><path class="a" d="m541.8 412.2h-56.1c-10.7 0-19.4 8.7-19.4 19.4v35.8c0 10.7 8.7 19.4 19.4 19.4h56.1c10.7 0 19.4-8.7 19.4-19.4v-7.7h-22.1v1c0 4-3.3 7.3-7.3 7.3h-36c-4 0-7.3-3.3-7.3-7.3v-22.3c0-4 3.3-7.3 7.3-7.3h36c4 0 7.3 3.3 7.3 7.3v1h22.1v-7.7c0-10.7-8.7-19.4-19.4-19.4z"/><path class="a" d="m747.9 412.2h-48.7c-10.7 0-19.4 8.7-19.4 19.4v9.3c0 10.7 8.7 16.3 19.4 16.3l38.7 0.4c4.3 0 6.5 2.6 6.5 5.2 0 2.6-2.2 5.4-6.5 5.4h-28.6c-3.3 0-6.1-2.6-7-5.6h-22.4v4.8c0 10.7 8.7 19.4 19.4 19.4h48.7c10.7 0 19.4-8.7 19.4-19.4v-9.1c0-10.7-8.7-16.1-19.4-16.1l-38.7-0.4c-4.3 0-6.5-3-6.5-5.5 0-2.5 2.2-5.4 6.5-5.4h28.6c3.3 0 6.1 2.6 7 5.6h22.4v-4.8c0-10.7-8.7-19.4-19.4-19.4z"/><path class="a" d="m914.9 412.2h-23.6l-39.3 74.5h25.8l6-12h49.8l6 12h25.8l-39.3-74.5zm-23.3 46.8l14.7-29.5h4.8l14.7 29.5h-34.1z"/></svg>