<?xml version="1.0" encoding="UTF-8"?>
<svg id="Layer_1" xmlns="http://www.w3.org/2000/svg" version="1.1" viewBox="0 0 1227.3 533.6">
  <!-- Generator: Adobe Illustrator 29.1.0, SVG Export Plug-In . SVG Version: 2.1.0 Build 142)  -->
  <defs>
    <style>
      .st0 {
        fill: #231f20;
      }
    </style>
  </defs>
  <g>
    <path class="st0" d="M428.9,223.2h4.8l7.9,22.1h-20.6l7.9-22.1ZM427.5,241.1h7.4l-3.7-11.3-3.7,11.3Z"/>
    <path class="st0" d="M450.8,223.3v22.1h-4.9v-22.1h4.9Z"/>
    <path class="st0" d="M473.6,223.3v4.4h-11.7v4.2h9.7v4.3h-9.7v4.7h11.7v4.4h-16.6v-22.1h16.6Z"/>
    <path class="st0" d="M487.9,245.6c-7,0-10.8-5.5-10.8-11.3s3.8-11.3,10.8-11.3,10.8,5.5,10.8,11.3-3.8,11.3-10.8,11.3ZM487.9,227.5c-3.5,0-5.7,2.8-5.7,6.8s2.2,6.8,5.7,6.8,5.7-2.8,5.7-6.8-2.2-6.8-5.7-6.8ZM484.3,232.2h7.4v3.6h-7.4v-3.6Z"/>
    <path class="st0" d="M508.7,223.3l10.7,14.4v-14.4h4.9v22.1h-4.9l-10.7-14.4v14.4h-4.9v-22.1h4.9Z"/>
    <path class="st0" d="M547,223.3v4.4h-11.7v4.2h9.7v4.3h-9.7v4.7h11.7v4.4h-16.6v-22.1h16.6Z"/>
    <path class="st0" d="M557.1,223.3v22.1h-4.9v-22.1h4.9Z"/>
    <path class="st0" d="M562.5,223.3h16.5v4.4h-10l5.4,6.3-5.5,6.8h10.2v4.4h-16.6v-4.4l5.8-6.8-5.7-6.4v-4.4Z"/>
    <path class="st0" d="M609.9,240.9l4,4.4h-4.9l-1.8-2c-1.9,1.4-4.2,2.3-6.8,2.3-4.6,0-7.3-2.8-7.3-6.5s1.9-4.9,4.3-6.5c-1.1-1.2-2.2-3-2.2-4.5,0-2.9,2-5.2,5.7-5.2s5.6,2.1,5.6,5-1.4,4-3.6,5.5l4.2,4.6c.7-.9,1.3-1.9,1.8-3l3.6,1.6c-.7,1.5-1.7,3-2.8,4.3ZM604.5,240.4l-4.6-5c-1.5,1.1-2.2,2.2-2.2,3.4,0,1.9,1.7,2.7,3.4,2.7s2.4-.4,3.4-1.1ZM600.7,230.8s0,0,0,0c1.5-.9,2-1.6,2-2.7s-.6-1.6-1.7-1.6-1.7.9-1.7,1.9.6,1.6,1.3,2.5Z"/>
    <path class="st0" d="M644.7,223.3v4.4h-11.7v4.2h9.7v4.3h-9.7v4.7h11.7v4.4h-16.6v-22.1h16.6Z"/>
    <path class="st0" d="M658.9,245.6c-7,0-10.8-5.5-10.8-11.3s3.8-11.3,10.8-11.3,10.8,5.5,10.8,11.3-3.8,11.3-10.8,11.3ZM658.9,227.5c-3.5,0-5.7,2.8-5.7,6.8s2.2,6.8,5.7,6.8,5.7-2.8,5.7-6.8-2.2-6.8-5.7-6.8ZM655.3,232.2h7.4v3.6h-7.4v-3.6Z"/>
    <path class="st0" d="M679.7,223.3l10.7,14.4v-14.4h4.9v22.1h-4.9l-10.7-14.4v14.4h-4.9v-22.1h4.9Z"/>
    <path class="st0" d="M706.5,223.3v22.1h-4.9v-22.1h4.9Z"/>
    <path class="st0" d="M720,236.5l-2.3,2.7v6.1h-4.9v-22.1h4.9v9.5l7.9-9.5h5.7l-8.3,9.7,8.2,12.4h-5.5l-5.7-8.8Z"/>
    <path class="st0" d="M751.8,223.3v4.4h-11.7v4.2h9.7v4.3h-9.7v4.7h11.7v4.4h-16.6v-22.1h16.6Z"/>
    <path class="st0" d="M756.1,223.3h16.5v4.4h-10l5.4,6.3-5.5,6.8h10.2v4.4h-16.6v-4.4l5.8-6.8-5.7-6.4v-4.4Z"/>
    <path class="st0" d="M797.7,245.6c-7,0-10.8-5.5-10.8-11.3s3.8-11.3,10.8-11.3,10.8,5.5,10.8,11.3-3.8,11.3-10.8,11.3ZM797.7,227.5c-3.5,0-5.7,2.8-5.7,6.8s2.2,6.8,5.7,6.8,5.7-2.8,5.7-6.8-2.2-6.8-5.7-6.8Z"/>
    <path class="st0" d="M818.6,223.2h4.8l7.9,22.1h-20.6l7.9-22.1ZM817.2,241.1h7.4l-3.7-11.3-3.7,11.3Z"/>
    <path class="st0" d="M840.5,223.3v22.1h-4.9v-22.1h4.9Z"/>
    <path class="st0" d="M854,236.5l-2.3,2.7v6.1h-4.9v-22.1h4.9v9.5l7.9-9.5h5.7l-8.3,9.7,8.2,12.4h-5.5l-5.7-8.8Z"/>
    <path class="st0" d="M885.8,223.3v4.4h-11.7v4.2h9.7v4.3h-9.7v4.7h11.7v4.4h-16.6v-22.1h16.6Z"/>
    <path class="st0" d="M890,223.3h16.5v4.4h-10l5.4,6.3-5.5,6.8h10.2v4.4h-16.6v-4.4l5.8-6.8-5.7-6.4v-4.4Z"/>
    <path class="st0" d="M940.3,223.3h4.9v22.1h-4.9v-14.6l-6.5,8.6-6.5-8.6v14.6h-4.9v-22.1h4.9l6.6,8.7,6.5-8.7Z"/>
    <path class="st0" d="M968,223.3v4.4h-11.7v4.2h9.7v4.3h-9.7v4.7h11.7v4.4h-16.6v-22.1h16.6Z"/>
    <path class="st0" d="M987.8,223.3v4.4h-6v17.6h-4.9v-17.6h-6.1v-4.4h17Z"/>
    <path class="st0" d="M1002.2,242.1h-8l-1.1,3.2h-5.1l7.9-22.1h4.8l7.9,22.1h-5.3l-1.1-3.2ZM995.4,238.2h5.5l-2.7-8.3-2.8,8.3Z"/>
    <path class="st0" d="M1019.8,243.4c-6.9-.4-9.8-4.7-9.8-9.4s2.9-9,9.8-9.4v-1.6h4.7v1.6c6.9.4,9.8,4.7,9.8,9.4s-2.9,8.9-9.8,9.4v2.3h-4.7v-2.3ZM1019.8,239.2v-10.5c-3.6.4-4.9,2.5-4.9,5.2s1.4,4.9,4.9,5.3ZM1024.5,228.7v10.5c3.5-.4,4.9-2.6,4.9-5.3s-1.4-4.9-4.9-5.2Z"/>
    <path class="st0" d="M1048.6,245.6c-7,0-10.8-5.5-10.8-11.3s3.8-11.3,10.8-11.3,10.8,5.5,10.8,11.3-3.8,11.3-10.8,11.3ZM1048.6,227.5c-3.5,0-5.7,2.8-5.7,6.8s2.2,6.8,5.7,6.8,5.7-2.8,5.7-6.8-2.2-6.8-5.7-6.8Z"/>
    <path class="st0" d="M1073.2,223.3c4.5,0,7.8,2.7,7.8,7.4s-3.2,7.2-8,7.2h-3.6v7.5h-4.9v-22.1h8.8ZM1072.6,227.7h-3.2v5.7h3.3c2,0,3.3-.9,3.3-2.8s-1.4-2.8-3.4-2.8Z"/>
    <path class="st0" d="M1102.1,223.3v4.4h-11.7v4.2h9.7v4.3h-9.7v4.7h11.7v4.4h-16.6v-22.1h16.6Z"/>
    <path class="st0" d="M1106.4,223.3h16.5v4.4h-10l5.4,6.3-5.5,6.8h10.2v4.4h-16.6v-4.4l5.8-6.8-5.7-6.4v-4.4Z"/>
  </g>
  <g>
    <path class="st0" d="M425.8,261.9v22.1h-4.8v-22.1h4.8Z"/>
    <path class="st0" d="M436.7,261.9l10.5,14.4v-14.4h4.8v22.1h-4.8l-10.5-14.4v14.4h-4.8v-22.1h4.8Z"/>
    <path class="st0" d="M472.7,261.9v4.4h-5.9v17.6h-4.8v-17.6h-5.9v-4.4h16.6Z"/>
    <path class="st0" d="M493,261.9v4.4h-11.4v4.2h9.5v4.3h-9.5v4.7h11.4v4.4h-16.2v-22.1h16.2Z"/>
    <path class="st0" d="M507.4,261.9c4.4,0,7.7,2.7,7.7,7.5s-1.5,5.1-3.7,6.3l4,8.3h-5.3l-3.3-7.1h-4.2v7.1h-4.8v-22.1h9.5ZM506.8,266.3h-4.1v6.2h4.1c2.1,0,3.3-1.3,3.3-3.2s-1.2-3-3.3-3Z"/>
    <path class="st0" d="M525,261.9l10.5,14.4v-14.4h4.8v22.1h-4.8l-10.5-14.4v14.4h-4.8v-22.1h4.8Z"/>
    <path class="st0" d="M558.4,280.7h-7.8l-1.1,3.2h-5l7.7-22.1h4.7l7.8,22.1h-5.2l-1-3.2ZM551.8,276.8h5.3l-2.7-8.3-2.7,8.3Z"/>
    <path class="st0" d="M581.3,261.9v4.4h-5.9v17.6h-4.8v-17.6h-5.9v-4.4h16.6Z"/>
    <path class="st0" d="M590.3,261.9v22.1h-4.8v-22.1h4.8Z"/>
    <path class="st0" d="M605.9,284.3c-6.8,0-10.6-5.5-10.6-11.3s3.7-11.3,10.6-11.3,10.6,5.5,10.6,11.3-3.8,11.3-10.6,11.3ZM605.9,266.1c-3.4,0-5.6,2.8-5.6,6.8s2.2,6.8,5.6,6.8,5.6-2.8,5.6-6.8-2.2-6.8-5.6-6.8Z"/>
    <path class="st0" d="M626.2,261.9l10.5,14.4v-14.4h4.8v22.1h-4.8l-10.5-14.4v14.4h-4.8v-22.1h4.8Z"/>
    <path class="st0" d="M659.5,280.7h-7.8l-1.1,3.2h-5l7.7-22.1h4.7l7.8,22.1h-5.2l-1-3.2ZM652.9,276.8h5.4l-2.7-8.3-2.7,8.3Z"/>
    <path class="st0" d="M674.7,261.9v17.4h10.9v4.6h-15.8v-22.1h4.8Z"/>
    <path class="st0" d="M714.3,279.5l3.9,4.4h-4.8l-1.7-2c-1.9,1.4-4.1,2.3-6.6,2.3-4.5,0-7.2-2.8-7.2-6.5s1.8-4.9,4.2-6.5c-1-1.2-2.1-3-2.1-4.5,0-2.9,2-5.2,5.6-5.2s5.5,2.1,5.5,5-1.4,4-3.5,5.4l4.1,4.6c.7-.9,1.3-1.9,1.8-3l3.5,1.6c-.7,1.5-1.6,3-2.7,4.3ZM709,279.1l-4.5-5c-1.5,1.1-2.2,2.2-2.2,3.4,0,1.9,1.6,2.7,3.3,2.7s2.3-.4,3.3-1.1ZM705.3,269.4s0,0,0,0c1.4-.9,1.9-1.6,1.9-2.7s-.6-1.6-1.6-1.6-1.7.9-1.7,1.9.5,1.6,1.3,2.5Z"/>
    <path class="st0" d="M736.9,261.9l10.5,14.4v-14.4h4.8v22.1h-4.8l-10.5-14.4v14.4h-4.8v-22.1h4.8Z"/>
    <path class="st0" d="M770.2,280.7h-7.8l-1.1,3.2h-5l7.7-22.1h4.7l7.8,22.1h-5.2l-1-3.2ZM763.7,276.8h5.3l-2.7-8.3-2.7,8.3Z"/>
    <path class="st0" d="M793.2,261.9v4.4h-5.9v17.6h-4.8v-17.6h-5.9v-4.4h16.6Z"/>
    <path class="st0" d="M802.2,261.9v22.1h-4.8v-22.1h4.8Z"/>
    <path class="st0" d="M817.8,284.3c-6.8,0-10.6-5.5-10.6-11.3s3.7-11.3,10.6-11.3,10.6,5.5,10.6,11.3-3.8,11.3-10.6,11.3ZM817.8,266.1c-3.4,0-5.6,2.8-5.6,6.8s2.2,6.8,5.6,6.8,5.6-2.8,5.6-6.8-2.2-6.8-5.6-6.8Z"/>
    <path class="st0" d="M838,261.9l10.5,14.4v-14.4h4.8v22.1h-4.8l-10.5-14.4v14.4h-4.8v-22.1h4.8Z"/>
    <path class="st0" d="M871.4,280.7h-7.8l-1.1,3.2h-5l7.7-22.1h4.7l7.8,22.1h-5.2l-1-3.2ZM864.8,276.8h5.3l-2.7-8.3-2.7,8.3Z"/>
    <path class="st0" d="M886.5,261.9v17.4h10.9v4.6h-15.8v-22.1h4.8Z"/>
    <path class="st0" d="M925.2,261.9v4.4h-5.9v17.6h-4.8v-17.6h-5.9v-4.4h16.6Z"/>
    <path class="st0" d="M938.8,261.9c4.4,0,7.7,2.7,7.7,7.5s-1.5,5.1-3.7,6.3l4,8.3h-5.3l-3.3-7.1h-4.2v7.1h-4.8v-22.1h9.5ZM938.2,266.3h-4.1v6.2h4.1c2.1,0,3.3-1.3,3.3-3.2s-1.2-3-3.3-3Z"/>
    <path class="st0" d="M963.6,280.7h-7.8l-1.1,3.2h-5l7.7-22.1h4.7l7.8,22.1h-5.2l-1-3.2ZM957,276.8h5.3l-2.7-8.3-2.7,8.3Z"/>
    <path class="st0" d="M978.7,261.9l10.5,14.4v-14.4h4.8v22.1h-4.8l-10.5-14.4v14.4h-4.8v-22.1h4.8Z"/>
    <path class="st0" d="M1012.1,268.2c-1.2-1.4-2.8-2.3-4.6-2.3s-3.2.9-3.2,2.3,1,1.8,2.2,2.2l3.7,1.1c3.2.9,5.6,2.6,5.6,6.2s-4,6.6-8.2,6.6-6.7-1.4-8.8-4.2l3.8-2.7c1.4,1.7,2.8,2.5,4.9,2.5s3.3-.9,3.3-2.1-.8-1.7-2.6-2.2l-3.7-1.1c-3.3-.9-5.3-3.1-5.3-6.2,0-4.4,3.7-6.7,8.1-6.7s6.4,1.2,8.6,3.9l-3.8,2.7Z"/>
    <path class="st0" d="M1029.5,261.9c4.4,0,7.6,2.7,7.6,7.4s-3.2,7.2-7.8,7.2h-3.5v7.5h-4.8v-22.1h8.6ZM1028.9,266.3h-3.2v5.7h3.2c2,0,3.3-.9,3.3-2.8s-1.3-2.8-3.3-2.8Z"/>
    <path class="st0" d="M1051,284.3c-6.8,0-10.6-5.5-10.6-11.3s3.7-11.3,10.6-11.3,10.6,5.5,10.6,11.3-3.8,11.3-10.6,11.3ZM1051,266.1c-3.4,0-5.6,2.8-5.6,6.8s2.2,6.8,5.6,6.8,5.6-2.8,5.6-6.8-2.2-6.8-5.6-6.8Z"/>
    <path class="st0" d="M1076,261.9c4.4,0,7.7,2.7,7.7,7.5s-1.5,5.1-3.7,6.3l4,8.3h-5.3l-3.3-7.1h-4.2v7.1h-4.8v-22.1h9.5ZM1075.5,266.3h-4.1v6.2h4.1c2.1,0,3.3-1.3,3.3-3.2s-1.2-3-3.3-3Z"/>
    <path class="st0" d="M1103,261.9v4.4h-5.9v17.6h-4.8v-17.6h-5.9v-4.4h16.6Z"/>
    <path class="st0" d="M1119,268.2c-1.2-1.4-2.8-2.3-4.6-2.3s-3.2.9-3.2,2.3,1,1.8,2.2,2.2l3.7,1.1c3.2.9,5.6,2.6,5.6,6.2s-4,6.6-8.2,6.6-6.7-1.4-8.8-4.2l3.8-2.7c1.4,1.7,2.8,2.5,4.9,2.5s3.3-.9,3.3-2.1-.8-1.7-2.6-2.2l-3.7-1.1c-3.3-.9-5.3-3.1-5.3-6.2,0-4.4,3.7-6.7,8.1-6.7s6.4,1.2,8.6,3.9l-3.8,2.7Z"/>
  </g>
</svg>