<?xml version="1.0" encoding="UTF-8"?>
<svg id="Layer_1" xmlns="http://www.w3.org/2000/svg" version="1.1" viewBox="0 0 1227.3 533.6">
  <!-- Generator: Adobe Illustrator 29.1.0, SVG Export Plug-In . SVG Version: 2.1.0 Build 142)  -->
  <defs>
    <style>
      .st0 {
        fill: #231f20;
      }
    </style>
  </defs>
  <polygon class="st0" points="215.1 231 248.3 272.8 175.1 336.9 296.3 281.8 269.1 247.3 332.4 205.3 316.1 185.3 372.1 139.9 311.1 162.2 380.7 106.1 295.8 143.8 388.7 72.9 280.6 123.3 398.9 36.3 219 122.8 273.7 191.3 215.1 231"/>
  <g>
    <path class="st0" d="M278.9,248.6l41.8-27.2c.2,1.9.2,3.9.2,5.8,0,19.6-7.7,37.4-20.2,50.4l-21.8-29Z"/>
    <path class="st0" d="M179.4,227.2c0-11.4,2.6-22.2,7.2-31.8,7.5,17.8,18.1,34.4,51.3,75.6-7.1,6-15.8,14-21.7,19.5-22-12.2-36.9-36-36.9-63.3Z"/>
    <path class="st0" d="M225.9,159.4c3.6-1.3,7.3-2.4,11.1-3.1l26,32.9s-2.5,1.9-3.9,2.7c-14.9-16.9-26.3-27-33.1-32.5Z"/>
  </g>
  <path class="st0" d="M158.7,342.1c-34.9-27.3-57.3-69.8-57.3-117.6,0-82.5,66.8-149.3,149.3-149.3,14.4,0,28.3,2,41.4,5.8l-50.8,25c-61.2,4.8-109.4,56-109.4,118.4,0,39.8,19.6,75,49.6,96.6l1.4,1-23.5,20.6-.8-.7Z"/>
  <path class="st0" d="M166.2,347.6l34.1-15.5,1.5.8c14.9,6.7,31.4,10.5,48.9,10.5,65.6,0,118.8-53.2,118.8-118.8,0-22.3-6.1-43.1-16.8-60.9l23.8-19.5c14.9,23.2,23.5,50.8,23.5,80.4,0,82.5-66.8,149.3-149.3,149.3-31.2,0-60.2-9.6-84.2-26l-.3-.2Z"/>
  <path class="st0" d="M162.9,186.1c1,3.3,3.5,7.4,11.3,9.7-1.9-4.9.3-10.6,5.8-10.7s8.7,1,12.8,7.8c4.1,6.8,19,31.9,19,31.9l42.6-28.6c-2.3-2-27.9-31-47.4-38.4-14-5.3-23-2.9-27.6,1.1-5,4.4-3.4,6.6-10.5,13.1-2.8,2.6-7.5,8.6-5.9,14ZM181.4,168.3c2.5-1.8,7.4,0,10-1l-12.2,6.1s-.5-3.3,2.2-5.1Z"/>
</svg>